<svg xmlns="http://www.w3.org/2000/svg" xmlns:xlink="http://www.w3.org/1999/xlink" zoomAndPan="magnify" preserveAspectRatio="xMidYMid meet" version="1.0" viewBox="1.95 116.13 370.25 106.25"><defs><g/></defs><g fill="#000000" fill-opacity="1"><g transform="translate(0.025189, 220.542003)"><g><path d="M 10.921875 -62.265625 L 10.921875 -85.453125 L 32.40625 -85.453125 L 32.40625 -62.265625 L 45.515625 -62.265625 L 45.515625 -45.890625 L 32.40625 -45.890625 L 32.40625 -26.09375 C 32.40625 -20.351562 34.023438 -17.484375 37.265625 -17.484375 C 38.078125 -17.484375 38.925781 -17.644531 39.8125 -17.96875 C 40.707031 -18.289062 41.394531 -18.613281 41.875 -18.9375 L 42.609375 -19.421875 L 47.953125 -2.0625 C 43.335938 0.53125 38.078125 1.828125 32.171875 1.828125 C 28.117188 1.828125 24.632812 1.117188 21.71875 -0.296875 C 18.8125 -1.710938 16.609375 -3.613281 15.109375 -6 C 13.617188 -8.394531 12.546875 -10.90625 11.890625 -13.53125 C 11.242188 -16.164062 10.921875 -18.976562 10.921875 -21.96875 L 10.921875 -45.890625 L 1.9375 -45.890625 L 1.9375 -62.265625 Z M 10.921875 -62.265625 "/></g></g></g><g fill="#000000" fill-opacity="1"><g transform="translate(47.96895, 220.542003)"><g><path d="M 7.28125 0 L 7.28125 -104.390625 L 28.765625 -104.390625 L 28.765625 -55.71875 L 29.015625 -55.71875 C 34.597656 -61.300781 40.546875 -64.09375 46.859375 -64.09375 C 49.929688 -64.09375 52.984375 -63.6875 56.015625 -62.875 C 59.054688 -62.070312 61.972656 -60.816406 64.765625 -59.109375 C 67.554688 -57.410156 69.820312 -55.003906 71.5625 -51.890625 C 73.300781 -48.773438 74.171875 -45.15625 74.171875 -41.03125 L 74.171875 0 L 52.6875 0 L 52.6875 -35.203125 C 52.6875 -38.441406 51.65625 -41.273438 49.59375 -43.703125 C 47.53125 -46.128906 44.835938 -47.34375 41.515625 -47.34375 C 38.273438 -47.34375 35.335938 -46.085938 32.703125 -43.578125 C 30.078125 -41.066406 28.765625 -38.273438 28.765625 -35.203125 L 28.765625 0 Z M 7.28125 0 "/></g></g></g><g fill="#000000" fill-opacity="1"><g transform="translate(128.198882, 220.542003)"><g><path d="M 7.28125 0 L 7.28125 -62.265625 L 28.765625 -62.265625 L 28.765625 -53.296875 L 29.015625 -53.296875 C 29.171875 -53.617188 29.429688 -54.019531 29.796875 -54.5 C 30.160156 -54.988281 30.945312 -55.835938 32.15625 -57.046875 C 33.375 -58.265625 34.671875 -59.359375 36.046875 -60.328125 C 37.421875 -61.296875 39.203125 -62.164062 41.390625 -62.9375 C 43.578125 -63.707031 45.804688 -64.09375 48.078125 -64.09375 C 50.421875 -64.09375 52.722656 -63.769531 54.984375 -63.125 C 57.253906 -62.476562 58.914062 -61.832031 59.96875 -61.1875 L 61.671875 -60.203125 L 52.6875 -42 C 50.007812 -44.269531 46.285156 -45.40625 41.515625 -45.40625 C 38.921875 -45.40625 36.691406 -44.835938 34.828125 -43.703125 C 32.972656 -42.566406 31.660156 -41.1875 30.890625 -39.5625 C 30.117188 -37.945312 29.570312 -36.570312 29.25 -35.4375 C 28.925781 -34.3125 28.765625 -33.425781 28.765625 -32.78125 L 28.765625 0 Z M 7.28125 0 "/></g></g></g><g fill="#000000" fill-opacity="1"><g transform="translate(188.644428, 220.542003)"><g><path d="M 9.34375 -96.984375 C 11.851562 -99.492188 14.847656 -100.75 18.328125 -100.75 C 21.804688 -100.75 24.800781 -99.492188 27.3125 -96.984375 C 29.820312 -94.484375 31.078125 -91.488281 31.078125 -88 C 31.078125 -84.519531 29.820312 -81.523438 27.3125 -79.015625 C 24.800781 -76.515625 21.804688 -75.265625 18.328125 -75.265625 C 14.847656 -75.265625 11.851562 -76.515625 9.34375 -79.015625 C 6.832031 -81.523438 5.578125 -84.519531 5.578125 -88 C 5.578125 -91.488281 6.832031 -94.484375 9.34375 -96.984375 Z M 7.28125 -62.265625 L 7.28125 0 L 28.765625 0 L 28.765625 -62.265625 Z M 7.28125 -62.265625 "/></g></g></g><g fill="#000000" fill-opacity="1"><g transform="translate(225.300165, 220.542003)"><g><path d="M 23.0625 -62.265625 L 38.234375 -28.40625 L 53.40625 -62.265625 L 78.90625 -62.265625 L 45.515625 0 L 30.953125 0 L -2.421875 -62.265625 Z M 23.0625 -62.265625 "/></g></g></g><g fill="#000000" fill-opacity="1"><g transform="translate(301.767443, 220.542003)"><g><path d="M 70.28125 -28.15625 L 25.125 -28.15625 C 25.125 -23.789062 26.539062 -20.554688 29.375 -18.453125 C 32.207031 -16.347656 35.285156 -15.296875 38.609375 -15.296875 C 42.085938 -15.296875 44.835938 -15.757812 46.859375 -16.6875 C 48.878906 -17.625 51.1875 -19.46875 53.78125 -22.21875 L 69.3125 -14.453125 C 62.84375 -3.597656 52.082031 1.828125 37.03125 1.828125 C 27.632812 1.828125 19.578125 -1.390625 12.859375 -7.828125 C 6.148438 -14.265625 2.796875 -22.015625 2.796875 -31.078125 C 2.796875 -40.140625 6.148438 -47.90625 12.859375 -54.375 C 19.578125 -60.851562 27.632812 -64.09375 37.03125 -64.09375 C 46.894531 -64.09375 54.921875 -61.238281 61.109375 -55.53125 C 67.304688 -49.832031 70.40625 -41.679688 70.40625 -31.078125 C 70.40625 -29.617188 70.363281 -28.644531 70.28125 -28.15625 Z M 25.734375 -40.0625 L 49.40625 -40.0625 C 48.914062 -43.300781 47.640625 -45.789062 45.578125 -47.53125 C 43.515625 -49.269531 40.863281 -50.140625 37.625 -50.140625 C 34.070312 -50.140625 31.242188 -49.207031 29.140625 -47.34375 C 27.035156 -45.476562 25.898438 -43.050781 25.734375 -40.0625 Z M 25.734375 -40.0625 "/></g></g></g></svg>